<svg width="229" height="55" viewBox="0 0 229 55" fill="none" xmlns="http://www.w3.org/2000/svg">
<g id="logo">
<g id="_2447744209776">
<path id="Vector" fill-rule="evenodd" clip-rule="evenodd" d="M8.05176 8.05494L15.144 15.1492C18.3037 11.9884 22.669 10.0332 27.4904 10.0332C37.1338 10.0332 44.951 17.8532 44.951 27.5H54.9806C54.9806 12.3123 42.6727 0 27.4904 0C19.899 0 13.0266 3.07834 8.05176 8.05494Z" fill="#EF806F"/>
<path id="Vector_2" fill-rule="evenodd" clip-rule="evenodd" d="M15.1438 15.1492L8.05156 8.05493C3.07723 13.0315 0 19.9064 0 27.5C0 42.6877 12.3079 55 27.4897 55L27.4902 44.9668C17.8473 44.9668 10.0296 37.1468 10.0296 27.5C10.0296 22.6768 11.9842 18.31 15.1438 15.1492V15.1492Z" fill="#9FD7E8"/>
<path id="Vector_3" fill-rule="evenodd" clip-rule="evenodd" d="M44.9509 27.5C44.9509 37.1468 37.1336 44.9668 27.4902 44.9668V55C42.6725 55 54.9804 42.6877 54.9804 27.5H44.9509Z" fill="#FAE961"/>
</g>
<path id="Vector_4" d="M80.0364 25.0059V29.9411H78.8853V26.11H64.0587V9.30994H65.2823V25.0059H76.1018V9.30994H77.3254V25.0059H80.0364V25.0059ZM95.6039 25.0059V26.11H84.016V9.30994H95.2437V10.414H85.2396V17.038H94.1885V18.1181H85.2396V25.0059H95.6039V25.0059ZM113.546 9.30994V26.11H112.323V18.1181H101.095V26.11H99.8713V9.30994H101.095V17.038H112.323V9.30994H113.546V9.30994ZM130.313 10.414H124.267V26.11H123.044V10.414H116.998V9.30994H130.313V10.414V10.414ZM139.786 9.30994C141.898 9.30994 143.554 9.81073 144.753 10.8099C145.952 11.8095 146.552 13.1979 146.552 14.9738C146.552 16.7341 145.952 18.1146 144.753 19.1142C143.554 20.1133 141.897 20.6141 139.786 20.6141H134.988V26.11H133.765V9.30994H139.786V9.30994ZM139.786 19.51C141.578 19.51 142.945 19.1177 143.889 18.334C144.832 17.5503 145.304 16.4302 145.304 14.9738C145.304 13.5178 144.832 12.3938 143.889 11.6021C142.945 10.8109 141.577 10.414 139.786 10.414H134.988V19.51H139.786V19.51ZM71.067 45.7565C69.4198 45.7565 67.9319 45.3842 66.6048 44.6404C65.2773 43.8967 64.2331 42.8761 63.4736 41.5801C62.7142 40.2846 62.334 38.8366 62.334 37.2363C62.334 35.6364 62.7142 34.1884 63.4736 32.8924C64.2331 31.5969 65.2773 30.5763 66.6048 29.8326C67.9319 29.0889 69.4198 28.7165 71.067 28.7165C72.7143 28.7165 74.2017 29.0849 75.5292 29.8206C76.8568 30.5563 77.9005 31.5729 78.6604 32.8684C79.4199 34.1645 79.7996 35.6204 79.7996 37.2363C79.7996 38.8526 79.4199 40.3086 78.6604 41.6046C77.9005 42.9001 76.8568 43.9167 75.5292 44.6524C74.2022 45.3882 72.7143 45.7565 71.067 45.7565V45.7565ZM71.067 44.6285C72.4745 44.6285 73.7461 44.3081 74.8817 43.6683C76.0169 43.0286 76.9132 42.1444 77.5687 41.0163C78.2243 39.8888 78.552 38.6282 78.552 37.2363C78.552 35.8443 78.2243 34.5843 77.5687 33.4567C76.9132 32.3287 76.0169 31.4445 74.8817 30.8047C73.7461 30.165 72.4745 29.8446 71.067 29.8446C69.6596 29.8446 68.384 30.165 67.2404 30.8047C66.0972 31.4445 65.1974 32.3287 64.5414 33.4567C63.8858 34.5843 63.5576 35.8443 63.5576 37.2363C63.5576 38.6282 63.8858 39.8883 64.5414 41.0163C65.1974 42.1444 66.0972 43.0286 67.2404 43.6683C68.384 44.3081 69.6596 44.6285 71.067 44.6285ZM94.6261 29.9405H88.5806V45.6366H87.357V29.9405H81.311V28.8365H94.6261V29.9405V29.9405ZM108.853 28.8365V45.6366H107.63V38.4363C105.694 39.2845 103.831 39.7083 102.04 39.7083C100.136 39.7083 98.6527 39.2485 97.589 38.3283C96.5252 37.4087 95.9936 36.1167 95.9936 34.4523V28.8365H97.2172V34.3324C97.2172 35.6764 97.6489 36.7245 98.5128 37.4762C99.3766 38.2284 100.584 38.6042 102.136 38.6042C103.847 38.6042 105.678 38.1724 107.63 37.3083V28.8365H108.853V28.8365ZM126.486 44.5325V45.6366H114.899V28.8365H126.126V29.9405H116.122V36.5645H125.071V37.6446H116.122V44.5325H126.486V44.5325ZM141.097 29.9405H135.051V45.6366H133.828V29.9405H127.782V28.8365H141.097V29.9405V29.9405ZM158.034 28.8365V45.6366H156.811V37.6446H145.583V45.6366H144.359V28.8365H145.583V36.5645H156.811V28.8365H158.034V28.8365ZM171.278 45.7565C169.63 45.7565 168.143 45.3847 166.815 44.6404C165.488 43.8962 164.444 42.8761 163.684 41.5801C162.925 40.2846 162.545 38.8366 162.545 37.2363C162.545 35.6364 162.925 34.1884 163.684 32.8924C164.444 31.5964 165.488 30.5763 166.815 29.8326C168.143 29.0884 169.63 28.7165 171.278 28.7165C172.925 28.7165 174.413 29.0844 175.74 29.8206C177.068 30.5563 178.111 31.5724 178.871 32.8684C179.63 34.1645 180.011 35.6204 180.011 37.2363C180.011 38.8526 179.63 40.3086 178.871 41.6046C178.111 42.9001 177.068 43.9162 175.74 44.6524C174.413 45.3882 172.925 45.7565 171.278 45.7565V45.7565ZM171.278 44.6285C172.685 44.6285 173.957 44.3086 175.092 43.6683C176.228 43.0281 177.124 42.1444 177.779 41.0163C178.435 39.8883 178.763 38.6282 178.763 37.2363C178.763 35.8443 178.435 34.5843 177.779 33.4567C177.124 32.3287 176.228 31.4445 175.092 30.8047C173.957 30.1645 172.685 29.8446 171.278 29.8446C169.87 29.8446 168.595 30.1645 167.451 30.8047C166.308 31.4445 165.408 32.3287 164.752 33.4567C164.096 34.5843 163.769 35.8443 163.769 37.2363C163.769 38.6282 164.096 39.8883 164.752 41.0163C165.408 42.1444 166.308 43.0281 167.451 43.6683C168.595 44.3086 169.87 44.6285 171.278 44.6285ZM191.742 45.7565C190.095 45.7565 188.611 45.3882 187.292 44.6524C185.972 43.9162 184.933 42.9001 184.173 41.6046C183.413 40.3086 183.033 38.8526 183.033 37.2363C183.033 35.6204 183.413 34.1645 184.173 32.8684C184.933 31.5724 185.972 30.5563 187.292 29.8206C188.611 29.0844 190.095 28.7165 191.742 28.7165C192.958 28.7165 194.077 28.9124 195.101 29.3043C196.125 29.6966 196.996 30.2764 197.716 31.0446L196.948 31.8368C195.605 30.5083 193.885 29.8446 191.79 29.8446C190.382 29.8446 189.103 30.1645 187.952 30.8047C186.8 31.4445 185.896 32.3287 185.241 33.4567C184.585 34.5843 184.257 35.8443 184.257 37.2363C184.257 38.6282 184.585 39.8883 185.241 41.0163C185.896 42.1444 186.8 43.0281 187.952 43.6683C189.103 44.3086 190.382 44.6285 191.79 44.6285C193.869 44.6285 195.589 43.9562 196.948 42.6122L197.716 43.4044C196.996 44.1721 196.121 44.7564 195.089 45.1562C194.057 45.5566 192.942 45.7565 191.742 45.7565V45.7565ZM211.991 29.9405H205.945V45.6366H204.721V29.9405H198.675V28.8365H211.991V29.9405ZM215.253 28.8365H216.477V43.5723L227.921 28.8365H229V45.6366H227.777V30.9247L216.333 45.6366H215.253V28.8365V28.8365Z" fill="#F8F8FA"/>
<path id="Vector_5" fill-rule="evenodd" clip-rule="evenodd" d="M124.268 27.4113C124.268 27.0728 123.994 26.7988 123.656 26.7988C123.318 26.7988 123.044 27.0728 123.044 27.4113C123.044 27.7493 123.318 28.0233 123.656 28.0233C123.994 28.0233 124.268 27.7493 124.268 27.4113Z" fill="#F8F8FA"/>
<path id="Vector_6" fill-rule="evenodd" clip-rule="evenodd" d="M116.758 27.4113C116.758 27.0728 117.032 26.7988 117.37 26.7988C117.708 26.7988 117.982 27.0728 117.982 27.4113C117.982 27.7493 117.708 28.0233 117.37 28.0233C117.032 28.0233 116.758 27.7493 116.758 27.4113Z" fill="#F8F8FA"/>
</g>
</svg>
