<svg width="26" height="26" viewBox="0 0 26 26" fill="none" xmlns="http://www.w3.org/2000/svg">
<path d="M23.9453 4.74414L20.8252 1.62695C20.6051 1.40589 20.3435 1.23049 20.0554 1.11083C19.7673 0.991173 19.4584 0.929613 19.1465 0.929688C18.5107 0.929688 17.9131 1.17871 17.4648 1.62695L14.1074 4.98437C13.8864 5.20447 13.711 5.46608 13.5913 5.75416C13.4716 6.04225 13.4101 6.35114 13.4102 6.66309C13.4102 7.29883 13.6592 7.89648 14.1074 8.34473L16.5625 10.7998C15.9878 12.0665 15.1888 13.2188 14.2041 14.2012C13.2218 15.1883 12.0696 15.9902 10.8027 16.5684L8.34766 14.1133C8.12756 13.8922 7.86596 13.7168 7.57787 13.5972C7.28978 13.4775 6.9809 13.4159 6.66895 13.416C6.0332 13.416 5.43555 13.665 4.98731 14.1133L1.62695 17.4678C1.40562 17.6883 1.23007 17.9504 1.11041 18.239C0.990741 18.5276 0.929324 18.837 0.929689 19.1494C0.929689 19.7852 1.17871 20.3828 1.62695 20.8311L4.74121 23.9453C5.45606 24.6631 6.44336 25.0703 7.45703 25.0703C7.6709 25.0703 7.87598 25.0527 8.07813 25.0176C12.0273 24.3672 15.9443 22.2666 19.1055 19.1084C22.2637 15.9531 24.3613 12.0391 25.0205 8.07812C25.2197 6.86816 24.8184 5.62305 23.9453 4.74414V4.74414Z" fill="white"/>
</svg>
